<svg xmlns="http://www.w3.org/2000/svg" width="200" height="200" viewBox="0 0 100 100">
  <defs>
    <style>
      .fur { fill: teal; }
      .inner-ear { fill: #38b2ac; }
      .frame { fill: #4fd1c5; }
      .lens { fill: #81e6d9; }
      .eye { fill: #1a202c; }
      .snout { fill: #e6fffa; }
    </style>
  </defs>

  <!-- Kopf -->
  <circle class="fur" cx="50" cy="55" r="30"/>

  <!-- Ohren -->
  <circle class="fur" cx="30" cy="30" r="10"/>
  <circle class="fur" cx="70" cy="30" r="10"/>
  <!-- Innenohren -->
  <circle class="inner-ear" cx="30" cy="30" r="6"/>
  <circle class="inner-ear" cx="70" cy="30" r="6"/>

  <!-- Schnauze-Bereich -->
  <ellipse class="snout" cx="50" cy="63" rx="12" ry="9"/>

  <!-- Brille-Rahmen -->
  <rect class="frame" x="28" y="45" width="18" height="12" rx="2"/>
  <rect class="frame" x="54" y="45" width="18" height="12" rx="2"/>
  <rect class="frame" x="46" y="49" width="8" height="4" rx="1"/>

  <!-- Linsen -->
  <rect class="lens" x="30" y="47" width="14" height="8" rx="1.5"/>
  <rect class="lens" x="56" y="47" width="14" height="8" rx="1.5"/>

  <!-- Augen -->
  <circle class="eye" cx="37" cy="51" r="2"/>
  <circle class="eye" cx="63" cy="51" r="2"/>

  <!-- Nase -->
  <ellipse class="eye" cx="50" cy="61" rx="3" ry="2"/>

  <!-- Mund -->
  <path d="M44 66 Q50 71 56 66" stroke="#1a202c" stroke-width="2" fill="none"/>
</svg>
